<svg width="52" height="52" viewBox="0 0 52 52" fill="none" xmlns="http://www.w3.org/2000/svg">
<rect x="0.5" y="0.5" width="51" height="51" rx="7.5" fill="#F7F7F8"/>
<rect x="0.5" y="0.5" width="51" height="51" rx="7.5" stroke="#F1F1F3"/>
<path d="M15.5 22.6691V31.25C15.5 32.9069 16.8431 34.25 18.5 34.25H33.5C35.1569 34.25 36.5 32.9069 36.5 31.25V22.6691L27.5723 28.1631C26.6081 28.7564 25.3919 28.7564 24.4277 28.1631L15.5 22.6691Z" fill="#262626"/>
<path d="M36.5 20.9078V20.75C36.5 19.0931 35.1569 17.75 33.5 17.75H18.5C16.8431 17.75 15.5 19.0931 15.5 20.75V20.9078L25.2139 26.8856C25.696 27.1823 26.304 27.1823 26.7861 26.8856L36.5 20.9078Z" fill="#262626"/>
</svg>
