<svg width="52" height="52" viewBox="0 0 52 52" fill="none" xmlns="http://www.w3.org/2000/svg">
<rect x="0.5" y="0.5" width="51" height="51" rx="7.5" fill="#F7F7F8"/>
<rect x="0.5" y="0.5" width="51" height="51" rx="7.5" stroke="#F1F1F3"/>
<path fill-rule="evenodd" clip-rule="evenodd" d="M25.5397 36.351C25.57 36.3685 25.5937 36.3821 25.6105 36.3915L25.6384 36.4071C25.8613 36.5294 26.1378 36.5285 26.3608 36.4075L26.3895 36.3915C26.4063 36.3821 26.43 36.3685 26.4603 36.351C26.5207 36.316 26.607 36.265 26.7155 36.1982C26.9325 36.0646 27.2388 35.8676 27.6046 35.6091C28.3351 35.0931 29.3097 34.3274 30.2865 33.3273C32.2307 31.3368 34.25 28.3462 34.25 24.5C34.25 19.9437 30.5563 16.25 26 16.25C21.4437 16.25 17.75 19.9437 17.75 24.5C17.75 28.3462 19.7693 31.3368 21.7135 33.3273C22.6903 34.3274 23.6649 35.0931 24.3954 35.6091C24.7612 35.8676 25.0675 36.0646 25.2845 36.1982C25.393 36.265 25.4793 36.316 25.5397 36.351ZM26 27.5C27.6569 27.5 29 26.1569 29 24.5C29 22.8431 27.6569 21.5 26 21.5C24.3431 21.5 23 22.8431 23 24.5C23 26.1569 24.3431 27.5 26 27.5Z" fill="#262626"/>
</svg>
